<svg width="130" height="36" viewBox="0 0 130 36" fill="none" xmlns="http://www.w3.org/2000/svg">
<path d="M17.8396 6.88879C22.4112 6.88879 26.3245 9.81361 27.9406 13.9595H7.73857C9.35466 9.81361 13.268 6.88879 17.8396 6.88879Z" fill="#9E77ED"/>
<path d="M7.27087 21.0302H21.88C25.2272 21.0302 27.9406 18.3168 27.9406 14.9696H7.27087C6.91932 15.9231 6.72847 16.9416 6.72847 17.9999C6.72847 19.0582 6.91932 20.0768 7.27087 21.0302Z" fill="#9E77ED"/>
<path d="M27.9406 22.0403C26.3245 26.1862 22.4112 29.111 17.8396 29.111C13.268 29.111 9.35466 26.1862 7.73857 22.0403H27.9406Z" fill="#9E77ED"/>
<path d="M35.5556 26.0927V9.66663H39.1367V23.2293H46.3983V26.0927H35.5556Z" fill="black"/>
<path d="M51.8604 26.3253C51.0499 26.3253 50.3276 26.1889 49.6935 25.9162C49.0594 25.6382 48.5577 25.2291 48.1883 24.6891C47.8244 24.1437 47.6424 23.4646 47.6424 22.6519C47.6424 21.9674 47.772 21.3926 48.0311 20.9275C48.2903 20.4623 48.6432 20.088 49.0898 19.8046C49.5364 19.5212 50.0436 19.3073 50.6115 19.1629C51.185 19.0186 51.786 18.917 52.4145 18.8582C53.1534 18.7833 53.7488 18.7138 54.201 18.6496C54.6531 18.5801 54.9812 18.4785 55.1852 18.3448C55.3892 18.2112 55.4912 18.0133 55.4912 17.7513V17.7032C55.4912 17.1952 55.3258 16.8022 54.9949 16.5242C54.6696 16.2461 54.2065 16.1071 53.6055 16.1071C52.9714 16.1071 52.4669 16.2435 52.092 16.5162C51.717 16.7835 51.4689 17.1204 51.3476 17.5267L48.089 17.2701C48.2544 16.5215 48.5797 15.8745 49.065 15.3291C49.5502 14.7784 50.176 14.356 50.9424 14.0619C51.7143 13.7624 52.6075 13.6127 53.622 13.6127C54.3278 13.6127 55.0032 13.6929 55.6483 13.8533C56.2989 14.0138 56.8751 14.2624 57.3769 14.5993C57.8841 14.9361 58.2839 15.3692 58.5761 15.8986C58.8683 16.4226 59.0144 17.0509 59.0144 17.7834V26.0927H55.6731V24.3843H55.5739C55.3699 24.7693 55.097 25.1088 54.7551 25.4029C54.4133 25.6917 54.0025 25.9189 53.5228 26.0847C53.0431 26.2451 52.489 26.3253 51.8604 26.3253ZM52.8694 23.9672C53.3877 23.9672 53.8453 23.8683 54.2423 23.6705C54.6393 23.4673 54.9508 23.1946 55.1769 22.8524C55.403 22.5102 55.516 22.1225 55.516 21.6894V20.3821C55.4057 20.4516 55.2541 20.5157 55.0611 20.5745C54.8736 20.628 54.6614 20.6788 54.4243 20.7269C54.1872 20.7697 53.9501 20.8098 53.713 20.8472C53.4759 20.8793 53.2609 20.9087 53.0679 20.9355C52.6544 20.9943 52.2932 21.0879 51.9845 21.2162C51.6757 21.3445 51.4358 21.5183 51.2649 21.7375C51.094 21.9514 51.0085 22.2188 51.0085 22.5396C51.0085 23.0048 51.1822 23.3603 51.5296 23.6063C51.8825 23.8469 52.3291 23.9672 52.8694 23.9672Z" fill="black"/>
<path d="M61.2159 26.0927V24.0555L67.4354 16.5883V16.5001H61.4309V13.7731H71.6782V15.9948L65.8392 23.2775V23.3657H71.8932V26.0927H61.2159Z" fill="black"/>
<path d="M77.7441 26.3253C76.9335 26.3253 76.2112 26.1889 75.5772 25.9162C74.9431 25.6382 74.4413 25.2291 74.0719 24.6891C73.708 24.1437 73.5261 23.4646 73.5261 22.6519C73.5261 21.9674 73.6556 21.3926 73.9148 20.9275C74.1739 20.4623 74.5268 20.088 74.9734 19.8046C75.42 19.5212 75.9273 19.3073 76.4952 19.1629C77.0686 19.0186 77.6696 18.917 78.2982 18.8582C79.037 18.7833 79.6325 18.7138 80.0846 18.6496C80.5368 18.5801 80.8648 18.4785 81.0688 18.3448C81.2728 18.2112 81.3748 18.0133 81.3748 17.7513V17.7032C81.3748 17.1952 81.2094 16.8022 80.8786 16.5242C80.5533 16.2461 80.0901 16.1071 79.4891 16.1071C78.8551 16.1071 78.3506 16.2435 77.9756 16.5162C77.6007 16.7835 77.3526 17.1204 77.2313 17.5267L73.9727 17.2701C74.1381 16.5215 74.4634 15.8745 74.9486 15.3291C75.4338 14.7784 76.0596 14.356 76.826 14.0619C77.5979 13.7624 78.4912 13.6127 79.5057 13.6127C80.2114 13.6127 80.8869 13.6929 81.532 13.8533C82.1826 14.0138 82.7588 14.2624 83.2605 14.5993C83.7678 14.9361 84.1675 15.3692 84.4598 15.8986C84.752 16.4226 84.8981 17.0509 84.8981 17.7834V26.0927H81.5568V24.3843H81.4575C81.2535 24.7693 80.9806 25.1088 80.6388 25.4029C80.2969 25.6917 79.8861 25.9189 79.4064 26.0847C78.9267 26.2451 78.3726 26.3253 77.7441 26.3253ZM78.7531 23.9672C79.2714 23.9672 79.729 23.8683 80.126 23.6705C80.523 23.4673 80.8345 23.1946 81.0606 22.8524C81.2866 22.5102 81.3997 22.1225 81.3997 21.6894V20.3821C81.2894 20.4516 81.1377 20.5157 80.9448 20.5745C80.7573 20.628 80.545 20.6788 80.3079 20.7269C80.0708 20.7697 79.8338 20.8098 79.5967 20.8472C79.3596 20.8793 79.1445 20.9087 78.9516 20.9355C78.538 20.9943 78.1769 21.0879 77.8681 21.2162C77.5593 21.3445 77.3195 21.5183 77.1486 21.7375C76.9776 21.9514 76.8922 22.2188 76.8922 22.5396C76.8922 23.0048 77.0659 23.3603 77.4132 23.6063C77.7661 23.8469 78.2127 23.9672 78.7531 23.9672Z" fill="black"/>
<path d="M87.1657 26.0927V13.7731H90.5815V15.9226H90.7138C90.9454 15.158 91.3341 14.5805 91.8799 14.1902C92.4258 13.7945 93.0544 13.5967 93.7656 13.5967C93.9421 13.5967 94.1323 13.6074 94.3363 13.6288C94.5403 13.6502 94.7195 13.6796 94.8739 13.717V16.7488C94.7085 16.7006 94.4797 16.6579 94.1874 16.6204C93.8952 16.583 93.6278 16.5643 93.3852 16.5643C92.8669 16.5643 92.4038 16.6739 91.9957 16.8931C91.5932 17.107 91.2734 17.4064 91.0364 17.7914C90.8048 18.1764 90.689 18.6202 90.689 19.1228V26.0927H87.1657Z" fill="black"/>
<path d="M104.376 20.8472V13.7731H107.899V26.0927H104.517V23.8549H104.384C104.098 24.5768 103.621 25.1569 102.954 25.5954C102.292 26.0339 101.484 26.2531 100.53 26.2531C99.6813 26.2531 98.9342 26.0659 98.2891 25.6916C97.644 25.3174 97.1394 24.7853 96.7755 24.0956C96.4172 23.4058 96.2352 22.5797 96.2297 21.6172V13.7731H99.7529V21.0077C99.7585 21.7349 99.9597 22.3097 100.357 22.7321C100.754 23.1545 101.286 23.3657 101.953 23.3657C102.377 23.3657 102.774 23.2721 103.144 23.085C103.513 22.8925 103.811 22.6091 104.037 22.2348C104.269 21.8605 104.382 21.398 104.376 20.8472Z" fill="black"/>
<path d="M120.822 17.2861L117.596 17.4786C117.541 17.2113 117.422 16.9707 117.24 16.7568C117.059 16.5375 116.819 16.3638 116.521 16.2354C116.229 16.1018 115.879 16.0349 115.471 16.0349C114.925 16.0349 114.464 16.1472 114.089 16.3718C113.714 16.591 113.527 16.8851 113.527 17.254C113.527 17.5481 113.648 17.7968 113.891 18C114.134 18.2031 114.55 18.3662 115.14 18.4892L117.439 18.9384C118.674 19.1843 119.595 19.58 120.201 20.1254C120.808 20.6708 121.111 21.3873 121.111 22.2749C121.111 23.0823 120.866 23.7908 120.375 24.4003C119.89 25.0099 119.223 25.4858 118.374 25.828C117.53 26.1649 116.557 26.3333 115.454 26.3333C113.772 26.3333 112.433 25.9938 111.435 25.3147C110.442 24.6303 109.86 23.6999 109.689 22.5235L113.155 22.3471C113.26 22.8444 113.513 23.224 113.916 23.486C114.318 23.7427 114.834 23.871 115.462 23.871C116.08 23.871 116.576 23.756 116.951 23.5261C117.331 23.2908 117.524 22.9887 117.53 22.6198C117.524 22.3097 117.389 22.0557 117.125 21.8578C116.86 21.6546 116.452 21.4996 115.901 21.3926L113.701 20.9676C112.46 20.7269 111.537 20.3099 110.93 19.7164C110.329 19.1228 110.029 18.3662 110.029 17.4465C110.029 16.6552 110.249 15.9734 110.69 15.4013C111.137 14.8292 111.763 14.388 112.568 14.0779C113.378 13.7678 114.326 13.6127 115.413 13.6127C117.017 13.6127 118.28 13.9416 119.201 14.5993C120.127 15.2569 120.667 16.1526 120.822 17.2861Z" fill="black"/>
</svg>
