<svg width="995" height="235" viewBox="0 0 995 235" fill="none" xmlns="http://www.w3.org/2000/svg">
<path d="M114.434 73.2956L114.434 117.503L70.212 117.503C45.8022 117.503 26.005 97.7053 26.005 73.2956C26.005 48.8858 45.8022 29.0886 70.212 29.0886C94.6217 29.0886 114.434 48.8712 114.434 73.2956Z" fill="#D97757"/>
<path d="M70.212 205.917C94.6268 205.917 114.419 186.124 114.419 161.71C114.419 137.295 94.6268 117.503 70.212 117.503C45.7971 117.503 26.005 137.295 26.005 161.71C26.005 186.124 45.7971 205.917 70.212 205.917Z" fill="#D97757"/>
<path d="M121.755 73.2956L121.755 117.503H165.977C190.386 117.503 210.184 97.7053 210.184 73.2956C210.184 48.8858 190.386 29.0886 165.977 29.0886C141.567 29.0886 121.755 48.8712 121.755 73.2956Z" fill="#D97757"/>
<path d="M165.962 205.917C190.377 205.917 210.169 186.124 210.169 161.71C210.169 137.295 190.377 117.503 165.962 117.503C141.547 117.503 121.755 137.295 121.755 161.71C121.755 186.124 141.547 205.917 165.962 205.917Z" fill="#D97757"/>
<path d="M295.686 174.003V59.2021H335.866L355.711 159.242H358.663L378.507 59.2021H418.687V174.003H397.695V75.1101H394.743L375.063 174.003H339.311L319.63 75.1101H316.678V174.003H295.686ZM484.916 176.299C470.484 176.299 459.004 172.362 450.476 164.49C441.948 156.509 437.684 145.138 437.684 130.378V102.826C437.684 88.0662 441.948 76.7501 450.476 68.8781C459.004 60.8968 470.484 56.9061 484.916 56.9061C499.348 56.9061 510.828 60.8968 519.356 68.8781C527.884 76.7501 532.148 88.0662 532.148 102.826V130.378C532.148 145.138 527.884 156.509 519.356 164.49C510.828 172.362 499.348 176.299 484.916 176.299ZM484.916 156.946C493.007 156.946 499.294 154.596 503.776 149.894C508.259 145.193 510.5 138.906 510.5 131.034V102.17C510.5 94.2982 508.259 88.0115 503.776 83.3102C499.294 78.6088 493.007 76.2581 484.916 76.2581C476.935 76.2581 470.648 78.6088 466.056 83.3102C461.573 88.0115 459.332 94.2982 459.332 102.17V131.034C459.332 138.906 461.573 145.193 466.056 149.894C470.648 154.596 476.935 156.946 484.916 156.946ZM551.136 174.003V59.2021H592.301L615.097 159.242H618.049V59.2021H639.369V174.003H598.205L575.409 73.9621H572.457V174.003H551.136ZM653.132 174.003L683.308 59.2021H721.028L751.204 174.003H728.9L722.668 148.746H681.668L675.436 174.003H653.132ZM686.752 128.738H717.584L703.644 72.8141H700.692L686.752 128.738ZM764.946 174.003V59.2021H814.802C822.018 59.2021 828.305 60.4594 833.662 62.9741C839.019 65.4888 843.174 69.0421 846.126 73.6341C849.078 78.2261 850.554 83.6382 850.554 89.8702V91.8382C850.554 98.7262 848.914 104.302 845.634 108.566C842.354 112.83 838.309 115.946 833.498 117.914V120.866C837.871 121.085 841.261 122.616 843.666 125.458C846.071 128.192 847.274 131.854 847.274 136.446V174.003H825.626V139.562C825.626 136.938 824.915 134.806 823.494 133.166C822.182 131.526 819.941 130.706 816.77 130.706H786.594V174.003H764.946ZM786.594 111.026H812.506C817.645 111.026 821.635 109.66 824.478 106.926C827.43 104.084 828.906 100.366 828.906 95.7742V94.1342C828.906 89.5422 827.485 85.8795 824.642 83.1462C821.799 80.3035 817.754 78.8822 812.506 78.8822H786.594V111.026ZM920.72 203.523C915.362 203.523 910.989 201.828 907.599 198.439C904.319 195.159 902.679 190.731 902.679 185.155V175.479C891.309 173.729 882.343 169.028 875.783 161.374C869.223 153.612 865.943 143.28 865.943 130.378V102.826C865.943 88.0662 870.207 76.7501 878.735 68.8781C887.263 60.8968 898.743 56.9061 913.175 56.9061C927.608 56.9061 939.088 60.8968 947.616 68.8781C956.144 76.7501 960.408 88.0662 960.408 102.826V130.378C960.408 143.28 957.128 153.612 950.568 161.374C944.008 169.028 935.042 173.729 923.672 175.479V181.875C923.672 185.155 925.202 186.795 928.264 186.795H937.94V203.523H920.72ZM913.175 156.946C921.266 156.946 927.553 154.596 932.036 149.894C936.518 145.193 938.76 138.906 938.76 131.034V102.17C938.76 94.2982 936.518 88.0115 932.036 83.3102C927.553 78.6088 921.266 76.2581 913.175 76.2581C905.194 76.2581 898.907 78.6088 894.315 83.3102C889.833 88.0115 887.591 94.2982 887.591 102.17V131.034C887.591 138.906 889.833 145.193 894.315 149.894C898.907 154.596 905.194 156.946 913.175 156.946Z" fill="#D97757"/>
</svg>
