<svg width="512" height="512" viewBox="0 0 512 512" fill="none" xmlns="http://www.w3.org/2000/svg">
<rect width="512" height="512" rx="256" fill="#262624"/>
<path d="M251.031 195.994V256H191.006C157.872 256 131 229.128 131 195.994C131 162.861 157.872 135.989 191.006 135.989C224.139 135.989 251.031 162.841 251.031 195.994Z" fill="#D97757"/>
<path d="M191.006 376.011C224.146 376.011 251.011 349.146 251.011 316.006C251.011 282.865 224.146 256 191.006 256C157.865 256 131 282.865 131 316.006C131 349.146 157.865 376.011 191.006 376.011Z" fill="#D97757"/>
<path d="M260.969 195.994V256H320.994C354.128 256 381 229.128 381 195.994C381 162.861 354.128 135.989 320.994 135.989C287.861 135.989 260.969 162.841 260.969 195.994Z" fill="#D97757"/>
<path d="M320.974 376.011C354.115 376.011 380.98 349.146 380.98 316.006C380.98 282.865 354.115 256 320.974 256C287.834 256 260.969 282.865 260.969 316.006C260.969 349.146 287.834 376.011 320.974 376.011Z" fill="#D97757"/>
</svg>
